<svg width="70" height="56" viewBox="0 0 70 56" fill="none" xmlns="http://www.w3.org/2000/svg">
<path d="M11.533 49.3035L1.82738 13.0815C1.55833 12.0774 2.15605 11.0421 3.16013 10.7731L21.2154 5.93519C21.2876 5.91586 21.3599 5.90532 21.4333 5.89891C21.4386 5.93506 21.4356 5.97343 21.445 6.00848L22.8593 11.2867C23.2842 12.8723 24.9207 13.8171 26.5062 13.3923L31.7845 11.978C31.8216 11.968 31.8518 11.9489 31.8852 11.9333C31.9164 12.0001 31.9434 12.068 31.9627 12.1401L36.5676 29.3256C36.725 29.237 36.892 29.1591 37.0693 29.1116L37.0755 29.11C37.2549 29.0619 37.4405 29.0453 37.6238 29.0448L33.0185 11.8578C32.8738 11.3176 32.5425 10.8649 32.0909 10.5484C32.0547 10.5205 32.0236 10.4869 31.9838 10.4622L31.9216 10.428C31.9216 10.428 31.9211 10.4259 31.919 10.4265L22.6539 5.07723C22.612 5.05308 22.5647 5.04145 22.5204 5.02459C22.021 4.79378 21.4654 4.73273 20.9273 4.87692L2.87678 9.71575C1.29124 10.1406 0.346392 11.7771 0.771235 13.3627L10.4775 49.5868C10.9023 51.1723 12.5388 52.1172 14.1244 51.6923L34.7898 46.155L34.5069 45.0994L13.8415 50.6367C12.8374 50.9057 11.8021 50.3076 11.533 49.3035Z" fill="#0F7173"/>
<path d="M8.85756 22.8048L16.4783 20.7629C16.7711 20.6844 16.9426 20.3843 16.8647 20.0936C16.7868 19.8029 16.4882 19.6288 16.1954 19.7072L8.5747 21.7492C8.28192 21.8276 8.11041 22.1277 8.18831 22.4184C8.26676 22.7112 8.56685 22.8827 8.85756 22.8048Z" fill="#0F7173"/>
<path d="M25.9497 22.3005L9.87158 26.6086C9.5788 26.687 9.40728 26.9871 9.48518 27.2778C9.56308 27.5685 9.86166 27.7427 10.1544 27.6642L26.2325 23.3561C26.5253 23.2777 26.6968 22.9776 26.6189 22.6869C26.541 22.3961 26.2404 22.2226 25.9497 22.3005Z" fill="#0F7173"/>
<path d="M27.2543 27.1598L11.1763 31.4679C10.8835 31.5464 10.712 31.8465 10.7899 32.1372C10.8678 32.4279 11.1663 32.602 11.4591 32.5236L27.5372 28.2155C27.83 28.137 28.0015 27.8369 27.9236 27.5462C27.8457 27.2555 27.5451 27.0819 27.2543 27.1598Z" fill="#0F7173"/>
<path d="M28.5512 32.0192L12.4731 36.3273C12.1804 36.4058 12.0088 36.7059 12.0867 36.9966C12.1646 37.2873 12.4632 37.4614 12.756 37.383L28.8341 33.0749C29.1269 32.9964 29.2984 32.6963 29.2205 32.4056C29.142 32.1128 28.8419 31.9413 28.5512 32.0192Z" fill="#0F7173"/>
<path d="M29.8559 36.8708L13.7778 41.1789C13.485 41.2573 13.3135 41.5574 13.3914 41.8481C13.4693 42.1389 13.7679 42.313 14.0607 42.2345L30.1388 37.9264C30.4315 37.848 30.6031 37.5479 30.5252 37.2572C30.4473 36.9665 30.1466 36.7929 29.8559 36.8708Z" fill="#0F7173"/>
<path d="M38.2086 30.2845C38.1186 30.229 38.0233 30.1949 37.9275 30.1675C37.7392 30.1163 37.5434 30.1113 37.3599 30.1605C37.1759 30.2076 37.0083 30.3078 36.8702 30.4442C36.7948 30.5175 36.7263 30.5999 36.6725 30.6961L31.1232 40.8634C30.6605 41.71 31.4383 42.6993 32.3703 42.4496L33.9558 42.0248C34.4012 41.9055 34.8586 42.1696 34.978 42.6149L36.2995 47.5468C36.4564 48.1324 37.0582 48.4816 37.6437 48.3247L46.1845 46.0384C46.7701 45.8815 47.1172 45.2802 46.9598 44.6926L45.6377 39.7587C45.5184 39.3133 45.7825 38.8558 46.2278 38.7365L47.8134 38.3117C48.7453 38.062 48.9263 36.8157 48.1003 36.3144L38.2086 30.2845Z" fill="#0F7173"/>
<path d="M67.3347 23.8371C67.3383 23.8136 67.3396 23.7935 67.339 23.7702C67.3389 23.6789 67.3239 23.5876 67.2773 23.507L62.9756 16.0563C62.9291 15.9757 62.8576 15.917 62.7786 15.8713C62.7587 15.8591 62.7393 15.8499 62.7171 15.8412C62.6962 15.8329 62.6786 15.8173 62.6557 15.8111L49.925 12.3986C49.105 12.1788 48.2587 12.6675 48.0389 13.4875L41.4783 37.972C41.2586 38.792 41.7472 39.6383 42.5672 39.858L60.1955 44.5815C61.0155 44.8012 61.8618 44.3126 62.0816 43.4926L67.3313 23.9053C67.3375 23.8824 67.3327 23.8594 67.336 23.8371L67.3347 23.8371ZM65.7309 22.9319L61.5913 21.8227L62.7009 17.6818L65.7312 22.9305L65.7309 22.9319ZM60.4677 43.5658L42.8394 38.8423C42.5801 38.7729 42.4256 38.5053 42.4951 38.2459L49.0548 13.7598C49.1242 13.5004 49.3918 13.3459 49.6512 13.4154L61.8752 16.6908L60.437 22.0584C60.3617 22.3393 60.5283 22.6279 60.8093 22.7032L66.1768 24.1414L61.0646 43.2203C60.9951 43.4796 60.7275 43.6341 60.4682 43.5646L60.4677 43.5658ZM56.1445 34.6244L59.8888 31.6855C60.1182 31.5058 60.1576 31.1757 59.9779 30.9463C59.7991 30.7186 59.4677 30.6788 59.2387 30.8573L55.7202 33.6194L53.7159 28.8692C54.8274 28.652 55.7811 27.8338 56.0935 26.668C56.5306 25.0368 55.5599 23.3556 53.9287 22.9185L51.4802 22.2624C51.1992 22.1871 50.9107 22.3537 50.8354 22.6347L48.4733 31.4501C48.398 31.7311 48.5646 32.0196 48.8455 32.0949C49.1265 32.1702 49.4151 32.0036 49.4903 31.7227L50.404 28.3128L52.3441 28.8326C52.4203 28.8531 52.4972 28.856 52.5739 28.8697L54.8627 34.293L51.2633 37.1179C51.034 37.2976 50.9946 37.6277 51.1743 37.8571C51.2474 37.9502 51.3454 38.0119 51.4509 38.0402C51.606 38.0817 51.7773 38.0527 51.9122 37.9458L55.2854 35.2985L56.979 39.3114C57.045 39.4668 57.177 39.5743 57.3283 39.6149C57.4376 39.6442 57.5562 39.6391 57.6684 39.5915C57.9359 39.4779 58.0621 39.1697 57.9485 38.9022L56.1432 34.6249L56.1445 34.6244ZM51.716 23.4159L53.656 23.9357C54.7252 24.2222 55.3627 25.3264 55.0762 26.3956C54.7897 27.4648 53.6868 28.1026 52.6163 27.8158L50.6763 27.296L51.716 23.4159Z" fill="#0F7173"/>
</svg>
