<svg width="306" height="53" viewBox="0 0 306 53" fill="none" xmlns="http://www.w3.org/2000/svg">
<g clip-path="url(#clip0_155_174)">
<path d="M0.375 31.3679C2.08944 26.4482 11.8493 24.375 26.0865 26.0894L28.8445 15.952C14.7564 14.163 4.46987 16.1755 2.75543 22.586L2.47395 23.6245L2.24435 27.0883L0.375 31.3679Z" fill="#0F7173"/>
<path d="M51.794 20.8281C50.0797 25.7478 40.3233 27.8107 26.0861 26.0963L23.3281 36.2337C37.4162 38.0227 47.7028 36.0101 49.4172 29.5997L49.5976 28.9339L49.7263 25.699L51.794 20.8281Z" fill="#102C2D"/>
<path d="M9.39062 10.1375C30.1874 11.6283 51.4314 21.9149 49.4188 29.5925L51.2823 22.7348C51.8786 20.5732 52.1768 19.455 52.1768 18.5606C52.1768 10.7338 31.6782 1.19266 12.1486 0L9.39062 10.1375Z" fill="#0F7173"/>
<path d="M42.7861 42.041C21.9893 40.5501 0.745374 30.2636 2.75801 22.5859L0.894469 29.4436C0.29819 31.6053 0 32.7234 0 33.6179C0 41.4446 20.4986 50.9858 40.0281 52.1784L42.7861 42.041Z" fill="#102C2D"/>
</g>
<path d="M303.742 32.7932H305.124C302.679 39.3145 294.173 41.6182 293.712 35.5222C289.955 41.122 281.874 40.0942 282.512 32.7577C283.008 27.0516 285.808 21.3455 292.152 21.1328H301.119L300.836 22.4796C299.737 27.9022 298.993 31.0565 298.178 35.1323C297.398 39.1727 302.572 36.1247 303.742 32.7932ZM293.818 33.183L295.519 24.3935C293.357 20.4594 289.175 24.2871 287.935 30.0287C286.588 36.4437 288.927 39.7752 293.818 33.183Z" fill="#0F7173"/>
<path d="M284.382 32.8356H285.764C282.929 40.4556 273.112 41.5189 274.6 33.6154C275.096 30.8863 275.664 28.051 276.231 24.9676C277.081 20.9272 273.253 23.9398 271.978 27.2004C271.942 27.2713 271.907 27.3422 271.871 27.4839C271.659 28.5826 270.028 37.9393 269.851 38.8608H265.173C266.165 33.3318 266.909 28.937 267.618 25.0739C268.292 21.3171 264.712 23.5499 263.259 26.527C263.223 26.5624 263.223 26.5979 263.188 26.6688L260.743 38.8608H255.852L259.396 21.1399H264.287L263.826 23.5499C266.661 20.1475 271.765 19.7222 272.084 24.5777C275.805 19.5095 282.185 19.1551 280.484 27.4839L279.917 30.6383C279.633 32.1623 279.598 32.2686 279.066 35.1394C278.463 37.9393 283.213 36.2026 284.382 32.8356Z" fill="#0F7173"/>
<path d="M248.191 24.9966C250.424 21.2752 253.436 19.5385 258.079 22.303L254.783 25.032C251.912 22.9409 249.29 25.67 247.482 28.6116L245.497 38.8543H240.5L244.08 21.1334H248.935L248.191 24.9966Z" fill="#0F7173"/>
<path d="M242.203 32.7932H243.585C241.14 39.3145 232.634 41.6182 232.173 35.5222C228.416 41.122 220.335 40.0942 220.973 32.7577C221.469 27.0516 224.269 21.3455 230.613 21.1328H239.58L239.297 22.4796C238.198 27.9022 237.454 31.0565 236.638 35.1323C235.859 39.1727 241.033 36.1247 242.203 32.7932ZM232.279 33.183L233.98 24.3935C231.818 20.4594 227.636 24.2871 226.396 30.0287C225.049 36.4437 227.388 39.7752 232.279 33.183Z" fill="#0F7173"/>
<path d="M222.99 32.7247H224.373C221.466 40.8409 211.755 40.8054 212.96 34.1069C213.563 30.74 214.13 27.7983 214.591 24.9984C215.335 21.1707 211.791 23.4035 210.196 26.3806L207.715 38.8207H202.859L207.892 14.0469H212.606L210.727 23.4744C214.52 19.5049 220.439 19.7884 218.985 27.5148C218.56 29.9957 218.099 32.6538 217.639 35.0284C216.894 39.2814 221.856 36.1271 222.99 32.7247Z" fill="#0F7173"/>
<path d="M204.482 15.8606C207.105 21.6376 201.399 27.8399 194.913 28.7969L192.893 38.8623H187.966L192.893 14.7619C191.475 15.329 190.093 16.1441 189.136 17.1365C187.612 18.6251 187.399 21.5313 188.604 23.516L183.784 25.7489C183.217 21.425 184.848 18.058 187.506 15.7543C192.893 11.1468 202.214 10.8987 204.482 15.8606ZM195.338 26.564C198.528 25.7489 201.08 21.1414 201.044 17.7036C200.974 15.5062 199.627 14.372 197.819 14.0885L195.338 26.564Z" fill="#0F7173"/>
<path d="M175.789 32.7632H177.065C174.301 37.8668 171.394 39.1782 167.354 39.0719C160.655 38.8592 160.549 30.3886 163.845 25.1432C166.539 20.9611 171.146 20.0751 173.166 21.7763C174.974 23.2294 175.009 25.923 173.946 28.014C172.351 30.9557 169.374 32.0544 166.326 31.9481C166.362 33.6493 167 35.634 168.524 36.3783C171.253 37.6542 174.123 35.5277 175.789 32.7632ZM166.468 29.8924C166.468 30.0342 166.432 30.176 166.432 30.2823C172.032 30.4595 172.67 23.7256 171.784 23.0167C171.075 22.4851 169.516 23.1585 168.24 25.1787C167.496 26.3128 166.858 27.9077 166.468 29.8924Z" fill="#0F7173"/>
<path d="M153.597 24.9966C155.83 21.2752 158.843 19.5385 163.485 22.303L160.189 25.032C157.319 22.9409 154.696 25.67 152.888 28.6116L150.904 38.8543H145.906L149.486 21.1334H154.341L153.597 24.9966Z" fill="#0F7173"/>
<path d="M147.609 32.7932H148.991C146.546 39.3145 138.04 41.6182 137.579 35.5222C133.822 41.122 125.741 40.0942 126.379 32.7577C126.876 27.0516 129.676 21.3455 136.02 21.1328H144.986L144.703 22.4796C143.604 27.9022 142.86 31.0565 142.045 35.1323C141.265 39.1727 146.439 36.1247 147.609 32.7932ZM137.685 33.183L139.387 24.3935C137.225 20.4594 133.042 24.2871 131.802 30.0287C130.455 36.4437 132.794 39.7752 137.685 33.183Z" fill="#0F7173"/>
<path d="M128.816 32.9064H130.517C127.115 40.2429 115.171 41.377 109.997 36.3443C105.318 31.9141 107.48 21.884 111.45 16.9931C113.151 14.9374 115.171 13.5552 117.191 12.8818C119.778 11.9249 122.33 12.0312 124.244 13.0236C125.91 13.8742 127.115 15.3627 127.363 17.4892C127.576 19.3677 127.044 21.7423 125.414 24.4713L122.543 19.8638C123.075 19.0132 123.783 18.1626 123.748 17.1348C123.712 16.0007 122.933 15.4336 121.87 15.4336C120.7 15.4336 119.282 16.107 117.758 17.4184C113.931 20.9271 111.131 28.8661 113.824 33.2608C116.518 37.6911 125.662 38.5771 128.816 32.9064Z" fill="#0F7173"/>
<path d="M98.3359 36.2302C98.3359 35.4504 98.6195 34.777 99.1511 34.1745C99.7182 33.6429 100.392 33.3594 101.171 33.3594C101.951 33.3594 102.624 33.6429 103.227 34.1745C103.759 34.777 104.042 35.4504 104.042 36.2302C104.042 37.0099 103.759 37.6833 103.227 38.2503C102.624 38.782 101.951 39.0655 101.171 39.0655C100.392 39.0655 99.7182 38.782 99.1511 38.2503C98.6195 37.6833 98.3359 37.0099 98.3359 36.2302Z" fill="#0F7173"/>
<path d="M93.8528 12.2037H98.6729L93.2503 38.8559H88.3948L91.1593 25.4235H84.2835L81.59 38.8559H76.6636L81.5545 15.1808C79.0736 15.4289 76.7344 15.7833 75.1396 17.1301C73.8991 18.1579 74.1117 21.0287 75.494 23.4742L70.7093 25.6716C70.1068 20.7806 71.1346 17.6617 73.2966 15.677C76.3091 12.7708 81.4482 12.1683 86.9417 12.1328L84.8861 22.3401H91.7972L93.8528 12.2037Z" fill="#0F7173"/>
<defs>
<clipPath id="clip0_155_174">
<rect width="52.1782" height="52.1782" fill="white"/>
</clipPath>
</defs>
</svg>
